<?xml version="1.0" standalone="no"?>
<!DOCTYPE svg PUBLIC "-//W3C//DTD SVG 20010904//EN"
 "http://www.w3.org/TR/2001/REC-SVG-20010904/DTD/svg10.dtd">
<svg version="1.0" xmlns="http://www.w3.org/2000/svg"
 width="832.000000pt" height="832.000000pt" viewBox="0 0 832.000000 832.000000"
 preserveAspectRatio="xMidYMid meet">
<metadata>
Created by potrace 1.14, written by Peter Selinger 2001-2017
</metadata>
<g transform="translate(0.000000,832.000000) scale(0.100000,-0.100000)"
fill="#000000" stroke="none">
<path d="M4148 7891 c-1 -5 -28 -37 -58 -71 -30 -34 -73 -83 -95 -108 -22 -25
-50 -56 -63 -70 -12 -14 -41 -48 -65 -75 -23 -28 -51 -60 -62 -71 -11 -12 -33
-37 -49 -56 -16 -19 -58 -68 -95 -109 -36 -41 -88 -100 -115 -130 -27 -31 -65
-74 -85 -97 -20 -22 -57 -65 -82 -95 -26 -30 -57 -66 -70 -80 -21 -22 -82 -92
-152 -173 -10 -12 -44 -50 -75 -86 -31 -35 -77 -87 -101 -115 -24 -27 -47 -52
-50 -55 -3 -3 -33 -36 -65 -75 -33 -38 -70 -81 -83 -95 -13 -14 -31 -34 -41
-46 -9 -12 -45 -52 -78 -90 -34 -38 -75 -84 -90 -102 -16 -19 -40 -46 -54 -61
-23 -26 -89 -101 -140 -161 -12 -14 -36 -41 -53 -60 -18 -19 -61 -69 -97 -110
-35 -41 -74 -85 -85 -96 -11 -12 -38 -43 -60 -69 -22 -25 -51 -59 -65 -74 -23
-26 -90 -103 -140 -161 -35 -41 -144 -162 -162 -182 -10 -10 -18 -20 -18 -23
0 -3 -17 -22 -37 -44 -21 -21 -58 -63 -83 -92 -25 -29 -54 -63 -65 -75 -11
-12 -45 -50 -75 -85 -30 -35 -68 -77 -83 -93 -15 -17 -40 -45 -55 -64 -15 -19
-45 -53 -67 -76 -22 -24 -55 -62 -74 -84 -18 -23 -47 -57 -65 -76 -27 -29 -61
-67 -143 -162 -10 -12 -47 -54 -83 -94 -61 -69 -72 -81 -110 -127 -9 -10 -36
-41 -60 -68 -25 -28 -70 -79 -100 -114 -30 -35 -70 -80 -89 -100 -18 -20 -61
-69 -94 -109 -34 -39 -65 -72 -69 -72 -4 0 -8 -5 -8 -10 0 -6 -14 -24 -30 -40
-17 -16 -30 -34 -30 -40 0 -5 -7 -10 -15 -10 -8 0 -15 -5 -15 -10 0 -6 -15
-27 -32 -46 -18 -20 -42 -46 -53 -58 -11 -12 -45 -51 -75 -86 -30 -35 -63 -72
-73 -82 -20 -21 -52 17 250 -304 61 -66 133 -142 160 -171 42 -45 195 -208
308 -328 22 -23 92 -98 155 -165 63 -68 135 -144 160 -170 25 -26 97 -102 160
-170 63 -68 129 -137 145 -155 17 -17 84 -89 150 -160 161 -171 169 -180 325
-345 74 -79 167 -177 205 -219 39 -41 106 -112 150 -159 44 -47 96 -102 115
-122 19 -21 91 -97 159 -169 l123 -131 1578 0 1577 0 84 88 c46 49 131 139
189 200 58 62 130 139 160 171 95 100 297 314 335 356 21 22 92 98 159 169
115 122 202 215 291 310 205 219 296 316 330 351 22 24 87 93 145 155 58 62
130 138 160 170 30 32 99 104 152 161 53 57 123 132 155 166 32 34 105 112
163 174 58 61 130 138 160 169 110 115 102 104 82 126 -9 11 -44 51 -77 89
-54 63 -78 91 -140 161 -11 12 -45 51 -75 85 -30 35 -75 86 -100 114 -25 28
-72 82 -105 120 -33 38 -67 76 -75 85 -8 8 -37 42 -65 75 -27 32 -57 66 -65
75 -13 14 -87 98 -175 198 -16 18 -41 46 -55 62 -14 15 -44 50 -67 78 -24 27
-55 63 -70 79 -16 17 -39 43 -53 59 -110 127 -237 273 -254 290 -12 11 -39 43
-61 70 -22 26 -47 55 -55 64 -8 9 -44 49 -80 90 -59 68 -98 112 -155 175 -11
13 -40 46 -65 75 -25 29 -50 58 -55 64 -6 6 -73 83 -150 171 -77 88 -142 162
-145 165 -5 5 -115 130 -165 189 -11 13 -27 31 -36 40 -8 9 -62 70 -119 136
-58 66 -109 125 -115 131 -6 6 -31 35 -56 64 -24 29 -55 65 -69 80 -14 15 -52
58 -85 95 -59 67 -70 79 -122 140 -15 17 -42 48 -62 70 -20 23 -61 69 -91 104
-30 35 -68 78 -85 96 -16 18 -52 59 -80 91 -48 56 -124 143 -135 154 -3 3 -34
39 -69 80 -36 41 -72 82 -80 90 -9 8 -25 27 -36 41 -19 24 -129 150 -165 189
-8 9 -44 49 -80 90 -36 41 -69 80 -75 86 -5 6 -35 40 -65 74 -30 35 -62 71
-70 80 -8 10 -37 44 -65 75 -76 89 -80 93 -87 76z m237 -1637 c5 -6 35 -40 65
-75 84 -97 149 -170 184 -209 17 -19 61 -69 96 -110 36 -41 67 -77 70 -80 3
-3 34 -39 70 -80 36 -41 67 -77 70 -80 3 -3 36 -41 75 -85 38 -44 74 -85 80
-91 19 -21 70 -80 135 -154 101 -116 122 -139 171 -194 26 -28 59 -67 75 -86
16 -19 37 -44 47 -55 11 -11 42 -47 70 -79 58 -67 111 -127 207 -235 36 -41
73 -83 83 -95 23 -27 96 -111 122 -139 11 -12 49 -56 85 -97 36 -41 67 -77 70
-80 3 -3 34 -39 70 -80 36 -41 72 -82 80 -90 8 -8 40 -44 70 -80 30 -35 62
-72 70 -80 8 -9 40 -45 70 -80 30 -35 64 -74 75 -86 23 -25 43 -48 134 -154
36 -41 70 -79 75 -85 6 -5 32 -35 58 -65 25 -30 65 -75 87 -100 46 -50 48 -59
24 -82 -10 -9 -54 -55 -98 -102 -44 -47 -107 -115 -140 -150 -33 -35 -109
-116 -170 -181 -60 -65 -130 -139 -155 -165 -25 -27 -94 -101 -155 -165 -60
-65 -135 -144 -165 -176 -30 -32 -102 -108 -159 -168 -57 -61 -107 -111 -110
-111 -4 0 -15 15 -24 33 -19 37 -50 90 -57 97 -3 3 -22 26 -43 52 -58 73 -169
178 -187 178 -5 0 -10 5 -10 10 0 6 -6 10 -13 10 -8 0 -22 9 -32 20 -10 11
-24 20 -32 20 -7 0 -13 5 -13 11 0 5 -4 8 -9 4 -5 -3 -12 -1 -16 5 -12 19
-184 93 -270 115 -27 7 -57 15 -65 18 -8 4 -31 8 -51 11 -20 3 -42 8 -50 10
-62 22 -261 30 -789 30 -457 0 -634 -5 -727 -20 -126 -20 -177 -32 -283 -67
-36 -11 -68 -20 -72 -19 -3 1 -12 -5 -18 -13 -7 -8 -19 -15 -26 -15 -28 0
-194 -99 -259 -155 -43 -37 -106 -98 -136 -131 -34 -39 -129 -180 -129 -194 0
-25 -23 -6 -118 96 -26 28 -102 109 -168 180 -67 71 -136 145 -154 164 -18 19
-87 93 -154 164 -135 143 -162 172 -326 347 -63 68 -135 144 -160 170 -25 26
-59 62 -76 81 l-30 33 138 160 c77 88 154 176 171 195 18 19 59 66 92 105 33
38 67 76 75 85 8 9 31 35 50 57 74 84 156 177 170 192 8 9 38 43 65 76 28 33
57 66 66 75 9 8 42 46 75 85 32 38 66 76 74 85 8 9 42 47 75 85 33 38 74 85
92 104 18 20 41 47 53 61 18 22 60 70 149 169 20 23 81 92 134 155 10 11 40
46 67 76 27 30 57 65 68 78 11 12 47 53 80 90 33 37 71 81 85 97 13 17 41 48
62 70 20 22 64 73 98 113 34 39 65 72 69 72 4 0 8 5 8 10 0 6 17 28 38 50 20
21 46 49 57 63 11 13 46 52 77 88 31 35 65 73 75 85 10 12 36 42 58 67 55 62
129 147 155 176 11 14 45 52 74 85 30 34 106 120 170 193 l117 132 107 -122
c58 -67 111 -127 117 -133z"/>
<path d="M4030 5199 c-88 -13 -115 -19 -150 -29 -19 -6 -46 -13 -59 -16 -13
-3 -37 -12 -52 -20 -16 -8 -32 -15 -36 -16 -16 -2 -119 -53 -153 -75 -101 -67
-116 -79 -205 -168 -206 -207 -315 -467 -317 -755 -1 -141 5 -191 42 -330 6
-25 17 -58 25 -75 21 -47 46 -109 46 -115 0 -3 6 -12 13 -20 7 -8 25 -36 40
-62 44 -78 130 -178 224 -260 81 -71 256 -170 347 -198 22 -6 47 -14 55 -17
35 -14 83 -23 190 -39 42 -6 192 -5 238 1 70 9 117 17 122 20 3 2 21 6 40 9
41 6 187 63 243 95 135 76 267 187 345 291 15 19 29 37 32 40 3 3 22 32 42 65
59 97 111 224 134 327 2 10 6 28 9 41 28 119 17 441 -18 485 -5 6 -7 12 -4 12
8 0 -36 126 -57 165 -9 17 -16 33 -16 37 0 7 -71 130 -80 138 -3 3 -18 23 -34
45 -114 157 -326 308 -526 375 -84 28 -84 28 -205 46 -52 8 -228 10 -275 3z"/>
</g>
</svg>
