<?xml version="1.0" standalone="no"?>
<!DOCTYPE svg PUBLIC "-//W3C//DTD SVG 20010904//EN"
 "http://www.w3.org/TR/2001/REC-SVG-20010904/DTD/svg10.dtd">
<svg version="1.0" xmlns="http://www.w3.org/2000/svg"
 width="768.000000pt" height="768.000000pt" viewBox="0 0 768.000000 768.000000"
 preserveAspectRatio="xMidYMid meet">
<metadata>
Created by potrace 1.14, written by Peter Selinger 2001-2017
</metadata>
<g transform="translate(0.000000,768.000000) scale(0.100000,-0.100000)"
fill="#000000" stroke="none">
<path d="M2117 5142 c-922 -922 -1684 -1687 -1693 -1700 -19 -27 -21 -111 -3
-144 6 -13 553 -565 1216 -1227 l1204 -1204 964 0 964 0 1199 1199 c659 659
1205 1210 1214 1224 18 30 19 113 0 132 -6 6 -12 16 -12 20 0 6 -3265 3275
-3352 3355 l-24 23 -1677 -1678z"/>
</g>
</svg>
